<?xml version="1.0" encoding="UTF-8"?>
<svg xmlns="http://www.w3.org/2000/svg" xmlns:xlink="http://www.w3.org/1999/xlink" width="48px" height="48px" viewBox="0 0 48 48" version="1.1">
<g id="surface1">
<path style=" stroke:none;fill-rule:nonzero;fill:rgb(0%,37.254903%,56.862748%);fill-opacity:1;" d="M 16.015625 23.960938 C 15.902344 26.644531 16.511719 29.3125 17.777344 31.6875 C 19.714844 34.933594 23.625 36.429688 27.234375 35.296875 C 29.726562 34.597656 31.554688 32.46875 31.871094 29.898438 C 32.03125 28.996094 32.035156 28.984375 32.035156 28.984375 C 34.640625 29.359375 38.839844 29.96875 41.445312 30.34375 L 41.28125 31.003906 C 40.691406 34.015625 39.289062 36.808594 37.230469 39.085938 C 35.058594 41.269531 32.230469 42.6875 29.179688 43.117188 C 25.011719 43.921875 20.699219 43.496094 16.765625 41.890625 C 12.644531 40.1875 9.480469 36.769531 8.101562 32.53125 C 6.023438 26.992188 6.03125 20.886719 8.128906 15.355469 C 10.148438 9.5 15.40625 5.363281 21.574219 4.773438 C 24.921875 4.199219 28.363281 4.484375 31.570312 5.605469 C 36.230469 7.238281 39.722656 11.144531 40.824219 15.957031 C 40.964844 16.484375 40.992188 16.582031 40.992188 16.582031 C 38.09375 17.109375 34.515625 17.78125 31.636719 18.40625 C 31.09375 15.53125 29.738281 13.261719 26.835938 12.554688 C 24.808594 11.925781 22.617188 12.140625 20.75 13.148438 C 18.882812 14.15625 17.5 15.871094 16.914062 17.910156 C 16.667969 18.613281 16.476562 19.335938 16.335938 20.070312 C 16.089844 21.351562 15.984375 22.65625 16.015625 23.960938 Z M 16.015625 23.960938 "/>
</g>
</svg>
